<svg width="38" height="16" viewBox="0 0 38 16" fill="none" xmlns="http://www.w3.org/2000/svg">
<path d="M0.999995 7C0.44771 7 -2.9018e-06 7.44772 0 8.00001C2.9018e-06 8.55229 0.44772 9 1.00001 9L0.999995 7ZM37.7071 8.70691C38.0976 8.31639 38.0976 7.68322 37.7071 7.2927L31.3431 0.928773C30.9526 0.53825 30.3194 0.538254 29.9289 0.92878C29.5384 1.31931 29.5384 1.95247 29.9289 2.34299L35.5858 7.99982L29.929 13.6567C29.5384 14.0472 29.5384 14.6804 29.929 15.0709C30.3195 15.4614 30.9527 15.4614 31.3432 15.0709L37.7071 8.70691ZM1.00001 9L37 8.99981L37 6.99981L0.999995 7L1.00001 9Z" fill="#E6E6E6"/>
</svg>
